<svg xmlns="http://www.w3.org/2000/svg" version="1.1" xmlns:xlink="http://www.w3.org/1999/xlink" xmlns:svgjs="http://svgjs.dev/svgjs" width="1920" height="1080" preserveAspectRatio="none" viewBox="0 0 1920 1080"><g mask="url(&quot;#SvgjsMask1010&quot;)" fill="none"><path d="M1234.77 1181.65C1351.57 1156.91 1262.98 890.63 1581.08 852.82 1899.19 815.01 2071.69 447.72 2273.71 431.62" stroke="rgba(255, 255, 255, 0.4)" stroke-width="2"></path><path d="M934.38 1128.27C1121.22 1111.31 1191.52 757.21 1565.82 722.75 1940.13 688.29 2009.81 329.85 2197.27 312.35" stroke="rgba(255, 255, 255, 0.4)" stroke-width="2"></path><path d="M866.3 1142.41C1084.19 1049.66 1112.93 381.41 1414.05 369.59 1715.16 357.77 1809.29 632.39 1961.79 639.59" stroke="rgba(255, 255, 255, 0.4)" stroke-width="2"></path><path d="M71.71 1215.87C314.22 1212.88 497.64 952.22 1000.84 936.85 1504.03 921.48 1667 455.32 1929.96 440.05" stroke="rgba(255, 255, 255, 0.4)" stroke-width="2"></path><path d="M1182.8 1178.83C1319.92 1110.42 1173.24 740.42 1512.76 662.28 1852.28 584.14 1972.2 220.37 2172.68 197.88" stroke="rgba(255, 255, 255, 0.4)" stroke-width="2"></path></g><defs><mask id="SvgjsMask1010"><rect width="1920" height="1080" fill="#ffffff"></rect></mask></defs></svg>